HIERARCHY
ROOT joint_Root
{
	OFFSET 0.0 0.0 0.0
	CHANNELS 6 Xposition Yposition Zposition Zrotation Xrotation Yrotation 
	JOINT Hips
	{
		OFFSET -17.1583 93.1646 452.98
		CHANNELS 6 Xposition Yposition Zposition Zrotation Xrotation Yrotation 
		JOINT Spine
		{
			OFFSET 15.7357 0.0 0.0
			CHANNELS 6 Xposition Yposition Zposition Zrotation Xrotation Yrotation 
			JOINT Chest
			{
				OFFSET 8.98455 -0.406207 0.0
				CHANNELS 6 Xposition Yposition Zposition Zrotation Xrotation Yrotation 
				JOINT Neck
				{
					OFFSET 16.3773 0.0 0.0
					CHANNELS 6 Xposition Yposition Zposition Zrotation Xrotation Yrotation 
					JOINT Head
					{
						OFFSET 6.45672 0.0 0.0
						CHANNELS 6 Xposition Yposition Zposition Zrotation Xrotation Yrotation 
						End Site
						{
							OFFSET 0.0 0.0 0.0
						}
					}
				}
				JOINT Shoulder_L
				{
					OFFSET 12.9942 -0.242716 4.98039
					CHANNELS 6 Xposition Yposition Zposition Zrotation Xrotation Yrotation 
					JOINT UpperArm_L
					{
						OFFSET 5.34809 0.0 0.0
						CHANNELS 6 Xposition Yposition Zposition Zrotation Xrotation Yrotation 
						JOINT LowerArm_L
						{
							OFFSET 24.3286 1.87007e-05 0.0
							CHANNELS 6 Xposition Yposition Zposition Zrotation Xrotation Yrotation 
							JOINT Hand_L
							{
								OFFSET 22.2916 0.0 0.0
								CHANNELS 6 Xposition Yposition Zposition Zrotation Xrotation Yrotation 
								End Site
								{
									OFFSET 0.0 0.0 0.0
								}
							}
						}
					}
				}
				JOINT Shoulder_R
				{
					OFFSET 12.9945 -0.242716 -4.98039
					CHANNELS 6 Xposition Yposition Zposition Zrotation Xrotation Yrotation 
					JOINT UpperArm_R
					{
						OFFSET -5.34813 0.0 0.0
						CHANNELS 6 Xposition Yposition Zposition Zrotation Xrotation Yrotation 
						JOINT LowerArm_R
						{
							OFFSET -24.3289 0.000322201 0.0
							CHANNELS 6 Xposition Yposition Zposition Zrotation Xrotation Yrotation 
							JOINT Hand_R
							{
								OFFSET -22.2915 -0.000108084 0.0
								CHANNELS 6 Xposition Yposition Zposition Zrotation Xrotation Yrotation 
								End Site
								{
									OFFSET 0.0 0.0 0.0
								}
							}
						}
					}
				}
			}
		}
		JOINT UpperLeg_L
		{
			OFFSET -2.19248 -6.46944 0.0
			CHANNELS 6 Xposition Yposition Zposition Zrotation Xrotation Yrotation 
			JOINT LowerLeg_L
			{
				OFFSET 39.0811 0.0 -1.23785e-05
				CHANNELS 6 Xposition Yposition Zposition Zrotation Xrotation Yrotation 
				JOINT Foot_L
				{
					OFFSET 40.9854 0.0 -1.26872e-05
					CHANNELS 6 Xposition Yposition Zposition Zrotation Xrotation Yrotation 
					JOINT Toes_L
					{
						OFFSET 11.7543 0.0 0.0
						CHANNELS 6 Xposition Yposition Zposition Zrotation Xrotation Yrotation 
						End Site
						{
							OFFSET 0.0 0.0 0.0
						}
					}
				}
			}
		}
		JOINT UpperLeg_R
		{
			OFFSET -2.19251 6.46944 0.0
			CHANNELS 6 Xposition Yposition Zposition Zrotation Xrotation Yrotation 
			JOINT LowerLeg_R
			{
				OFFSET -39.0811 -0.00228153 -0.0401928
				CHANNELS 6 Xposition Yposition Zposition Zrotation Xrotation Yrotation 
				JOINT Foot_R
				{
					OFFSET -40.9854 0.0 0.0
					CHANNELS 6 Xposition Yposition Zposition Zrotation Xrotation Yrotation 
					JOINT Toes_R
					{
						OFFSET -11.7543 0.0 0.0
						CHANNELS 6 Xposition Yposition Zposition Zrotation Xrotation Yrotation 
						End Site
						{
							OFFSET 0.0 0.0 0.0
						}
					}
				}
			}
		}
	}
}
MOTION
Frames:	6
Frame Time:	0.0333333
0.000000 0.000000 0.000000 0.000000 0.000000 -0.000000 -209.097000 88.723400 242.644000 -34.907900 83.747800 128.729000 15.735700 0.000005 -0.000001 96.204600 86.337300 -93.710700 8.984550 -0.406207 -0.000000 -0.491973 0.611944 4.987740 16.377300 -0.000001 -0.000001 1.060860 2.327340 -2.687640 6.456720 -0.000001 -0.000000 8.537420 2.522590 -1.865100 12.994200 -0.242716 4.980390 -93.225900 9.590470 -71.308800 5.348090 -0.000007 -0.000001 -68.343300 4.257090 2.998230 24.328600 0.000019 0.000005 6.737020 36.014500 -11.358500 22.291600 -0.000001 0.000005 -21.415800 5.190960 2.872620 12.994500 -0.242716 -4.980390 88.328700 5.426980 -72.854900 -5.348130 -0.000001 -0.000004 -70.737300 21.879200 -0.200317 -24.328900 0.000322 -0.000009 0.610633 5.657840 -6.202990 -22.291500 -0.000108 -0.000004 -1.524460 5.124380 4.556310 -2.192480 -6.469440 -0.000000 -169.287000 0.668639 -12.075900 39.081100 -0.000007 -0.000012 0.301201 -0.118650 68.498600 40.985400 -0.000006 -0.000013 -8.069120 9.441900 -36.375700 11.754300 -0.000000 0.000003 0.001214 0.023824 -15.610400 -2.192510 6.469440 -0.000001 -172.254000 2.351240 171.308000 -39.081100 -0.002282 -0.040193 0.255932 -0.323874 37.957400 -40.985400 0.000008 0.000006 -2.372300 -3.808570 -80.412500 -11.754300 -0.000006 -0.000006 -0.005833 0.236982 -6.952680
0.000000 0.000000 0.000000 0.000000 0.000000 -0.000000 -206.303000 89.977000 242.195000 -30.293800 86.532800 124.110000 15.735700 0.000005 -0.000001 105.331000 86.025400 -103.755000 8.984550 -0.406207 -0.000000 -0.124732 1.992770 3.152950 16.377300 -0.000001 -0.000001 1.513940 2.583850 -2.271510 6.456720 -0.000001 -0.000000 8.964870 2.612280 -1.074740 12.994200 -0.242716 4.980390 -93.059000 8.637890 -70.412600 5.348090 -0.000007 -0.000001 -65.833100 -1.152790 6.996990 24.328600 0.000019 0.000005 4.881720 32.494200 -9.032310 22.291600 -0.000001 0.000005 -14.097200 5.083130 5.463060 12.994500 -0.242716 -4.980390 88.520300 4.908110 -73.200900 -5.348130 -0.000001 -0.000004 -70.480100 26.244400 -3.926960 -24.328900 0.000322 -0.000009 0.961047 4.287190 -12.662100 -22.291500 -0.000108 -0.000004 0.744920 5.171200 3.440610 -2.192480 -6.469440 -0.000000 -172.362000 -1.281780 -16.348900 39.081100 -0.000007 -0.000012 0.280730 -0.116637 67.437300 40.985400 -0.000006 -0.000013 -8.050510 9.743370 -40.507000 11.754300 -0.000000 0.000003 0.001431 0.029190 -15.392700 -2.192510 6.469440 -0.000001 -175.416000 1.690700 176.338000 -39.081100 -0.002282 -0.040193 -0.016640 0.031997 31.928300 -40.985400 0.000008 0.000006 -5.571360 -1.141250 -78.158000 -11.754300 -0.000006 -0.000006 -0.005212 0.231167 -7.189730
0.000000 0.000000 0.000000 0.000000 0.000000 -0.000000 -203.557000 91.203100 241.870000 14.496400 88.445900 78.995500 15.735700 0.000005 -0.000001 112.445000 85.819800 -111.554000 8.984550 -0.406207 -0.000000 -0.061784 3.130250 1.783290 16.377300 -0.000001 -0.000001 2.099480 3.088620 -2.082540 6.456720 -0.000001 -0.000000 9.695320 2.833690 -0.605642 12.994200 -0.242716 4.980390 -92.839000 7.667990 -69.611700 5.348090 -0.000007 -0.000001 -62.503600 -5.432190 11.324900 24.328600 0.000019 0.000005 3.746550 26.722600 -8.286090 22.291600 -0.000001 0.000005 -5.661510 5.020800 6.841610 12.994500 -0.242716 -4.980390 88.667900 4.514480 -73.541000 -5.348130 -0.000001 -0.000004 -69.050200 28.779600 -7.635130 -24.328900 0.000322 -0.000009 1.551350 4.145120 -20.550300 -22.291500 -0.000108 -0.000004 3.097630 5.215730 2.330250 -2.192480 -6.469440 -0.000000 -174.517000 -3.125620 -19.349900 39.081100 -0.000007 -0.000012 0.251688 -0.129605 62.753200 40.985400 -0.000006 -0.000013 -9.053630 10.484600 -46.779800 11.754300 -0.000000 0.000003 0.001879 0.042367 -14.858200 -2.192510 6.469440 -0.000001 -177.480000 1.230180 -179.751000 -39.081100 -0.002282 -0.040193 -0.026812 0.059933 26.682700 -40.985400 0.000008 0.000006 -5.853950 0.270791 -74.757900 -11.754300 -0.000006 -0.000006 -0.003171 0.210188 -8.044250
0.000000 0.000000 0.000000 0.000000 0.000000 -0.000000 -200.900000 92.143300 241.600000 74.027000 87.609500 18.659800 15.735700 0.000005 -0.000001 118.505000 85.855100 -118.017000 8.984550 -0.406207 -0.000000 -0.496894 3.920180 0.994415 16.377300 -0.000001 -0.000001 2.666120 3.656690 -2.235540 6.456720 -0.000001 -0.000000 10.805800 3.045830 -0.549053 12.994200 -0.242716 4.980390 -92.698700 6.986960 -68.818900 5.348090 -0.000007 -0.000001 -58.451800 -8.617920 15.713700 24.328600 0.000019 0.000005 3.391660 21.988300 -8.995480 22.291600 -0.000001 0.000005 0.160608 4.950360 8.331790 12.994500 -0.242716 -4.980390 88.729600 4.383140 -73.819300 -5.348130 -0.000001 -0.000004 -66.744600 29.848000 -10.861200 -24.328900 0.000322 -0.000009 2.003630 3.572220 -29.350800 -22.291500 -0.000108 -0.000004 4.320900 5.266990 0.983851 -2.192480 -6.469440 -0.000000 -175.971000 -4.539900 -21.273200 39.081100 -0.000007 -0.000012 0.179884 -0.129473 54.254400 40.985400 -0.000006 -0.000013 -8.308890 11.881200 -51.834200 11.754300 -0.000000 0.000003 0.001585 0.033325 -15.224900 -2.192510 6.469440 -0.000001 -179.131000 2.260300 -176.713000 -39.081100 -0.002282 -0.040193 -0.017326 0.051443 21.865500 -40.985400 0.000008 0.000006 -5.065820 2.626600 -71.148000 -11.754300 -0.000006 -0.000006 -0.000916 0.181876 -9.195630
0.000000 0.000000 0.000000 0.000000 0.000000 -0.000000 -198.236000 92.698200 241.324000 86.798500 86.449600 4.904910 15.735700 0.000005 -0.000001 124.119000 86.086000 -123.817000 8.984550 -0.406207 -0.000000 -1.297400 4.366030 0.652723 16.377300 -0.000001 -0.000001 3.170740 4.047360 -2.814660 6.456720 -0.000001 -0.000000 12.259000 3.100980 -0.882763 12.994200 -0.242716 4.980390 -92.567900 6.393810 -68.064000 5.348090 -0.000007 -0.000001 -54.168400 -11.131900 19.220500 24.328600 0.000019 0.000005 2.979280 18.697400 -9.221190 22.291600 -0.000001 0.000005 4.249830 4.813940 11.026500 12.994500 -0.242716 -4.980390 88.765800 4.279180 -73.895400 -5.348130 -0.000001 -0.000004 -64.636400 29.663600 -13.520900 -24.328900 0.000322 -0.000009 1.723730 2.242530 -37.620500 -22.291500 -0.000108 -0.000004 5.104250 5.315780 -0.371817 -2.192480 -6.469440 -0.000000 -176.793000 -4.922960 -21.744100 39.081100 -0.000007 -0.000012 0.110304 -0.123375 41.798100 40.985400 -0.000006 -0.000013 -8.385350 13.201000 -53.475400 11.754300 -0.000000 0.000003 0.001816 0.040271 -14.943200 -2.192510 6.469440 -0.000001 179.241000 4.728380 -173.948000 -39.081100 -0.002282 -0.040193 -0.010604 0.044424 17.409600 -40.985400 0.000008 0.000006 -4.671690 5.771360 -68.173500 -11.754300 -0.000006 -0.000006 0.000352 0.161516 -10.022600
0.000000 0.000000 0.000000 0.000000 0.000000 -0.000000 -195.373000 92.751500 241.088000 87.197700 85.649300 3.643680 15.735700 0.000005 -0.000001 130.613000 86.306800 -130.266000 8.984550 -0.406207 -0.000000 -2.176080 4.776650 0.786269 16.377300 -0.000001 -0.000001 3.576270 4.334330 -3.547270 6.456720 -0.000001 -0.000000 13.454700 2.740900 -1.781050 12.994200 -0.242716 4.980390 -92.282700 5.535040 -67.545700 5.348090 -0.000007 -0.000001 -50.530000 -12.928700 21.409500 24.328600 0.000019 0.000005 2.465510 17.398200 -8.193110 22.291600 -0.000001 0.000005 6.750960 4.716100 12.859300 12.994500 -0.242716 -4.980390 88.859600 3.929440 -73.802400 -5.348130 -0.000001 -0.000004 -63.429600 28.431700 -15.304000 -24.328900 0.000322 -0.000009 0.627952 0.624268 -45.357000 -22.291500 -0.000108 -0.000004 5.358550 5.336900 -0.987487 -2.192480 -6.469440 -0.000000 -176.877000 -4.829850 -19.921400 39.081100 -0.000007 -0.000012 0.050893 -0.107141 25.408200 40.985400 -0.000006 -0.000013 -8.201300 14.263200 -54.487300 11.754300 -0.000000 0.000003 0.002022 0.047536 -14.648600 -2.192510 6.469440 -0.000001 178.213000 6.595630 -170.958000 -39.081100 -0.002282 -0.040193 -0.007188 0.044382 13.336400 -40.985400 0.000008 0.000006 -4.580790 8.086190 -66.129500 -11.754300 -0.000006 -0.000006 0.001493 0.136885 -11.022200
